<svg width="533" height="400" viewBox="0 0 533 400" fill="none" xmlns="http://www.w3.org/2000/svg">
<path d="M288 281.5C311.958 270.517 316.501 250.023 315.077 237.662" stroke="#A3B92B" stroke-width="5"/>
<path d="M315.317 240.708L313.393 240.542" stroke="#A3B92B" stroke-width="5"/>
<path d="M217.091 157.733C212.158 133.722 191.971 125.346 179.738 123.355" stroke="#A3B92B" stroke-width="5"/>
<path d="M179.814 123.148L179.201 124.802" stroke="#A3B92B" stroke-width="5"/>
<path d="M224.334 315.076C188.843 252.659 129.102 247.315 95.8321 252.659" stroke="#A3B92B" stroke-width="5"/>
<path d="M225.5 365.5C254.5 275 328.332 260.916 362.25 268.443" stroke="#A3B92B" stroke-width="5"/>
<path d="M227.5 276.5C240.57 206.577 281.49 173.361 310.821 173.361" stroke="#A3B92B" stroke-width="5"/>
<path d="M379.272 240.06C377.822 240.971 357.474 244.943 355.372 267.576C376.853 264.013 380.329 239.397 379.272 240.06Z" fill="#A3B92B"/>
<path d="M355.372 267.576C357.474 244.943 377.822 240.971 379.272 240.06C380.329 239.397 376.853 264.013 355.372 267.576ZM355.372 267.576C355.3 268.357 356.55 266.769 355.372 267.576Z" stroke="#A3B92B"/>
<path d="M314.926 240.993C316.54 240.432 340.474 242.239 339.667 217.975C314.308 215.375 313.751 241.402 314.926 240.993Z" fill="#A3B92B"/>
<path d="M339.667 217.975C340.474 242.239 316.54 240.432 314.926 240.993C313.751 241.402 314.308 215.375 339.667 217.975ZM339.667 217.975C339.639 217.137 338.366 218.506 339.667 217.975Z" stroke="#A3B92B"/>
<path d="M231.336 273.106C233.057 272.788 257.423 278.067 259.352 254.003C233.613 247.732 230.083 273.338 231.336 273.106Z" fill="#A3B92B"/>
<path d="M259.352 254.003C257.423 278.067 233.057 272.788 231.336 273.106C230.083 273.338 233.613 247.732 259.352 254.003ZM259.352 254.003C259.419 253.172 257.957 254.336 259.352 254.003Z" stroke="#A3B92B"/>
<path d="M199.034 308.862C199.812 309.758 201.862 324.328 224.461 320.78C222.931 305.256 198.467 308.21 199.034 308.862Z" fill="#A3B92B"/>
<path d="M224.461 320.78C201.862 324.328 199.812 309.758 199.034 308.862C198.467 308.21 222.931 305.256 224.461 320.78ZM224.461 320.78C225.241 320.658 223.76 320.068 224.461 320.78Z" stroke="#A3B92B"/>
<path d="M252.447 212.076C254.234 212.76 272.492 230.735 291.555 211.422C272.767 191.846 251.146 211.578 252.447 212.076Z" fill="#A3B92B"/>
<path d="M291.555 211.422C272.492 230.735 254.234 212.76 252.447 212.076C251.146 211.578 272.767 191.846 291.555 211.422ZM291.555 211.422C292.212 210.755 290.051 210.931 291.555 211.422Z" stroke="#A3B92B"/>
<path d="M218.908 155.17C219.896 154.543 236.303 151.843 231.586 136.184C214.084 138.598 218.187 155.626 218.908 155.17Z" fill="#A3B92B"/>
<path d="M231.586 136.184C236.303 151.843 219.896 154.543 218.908 155.17C218.187 155.626 214.084 138.598 231.586 136.184ZM231.586 136.184C231.423 135.644 230.803 136.74 231.586 136.184Z" stroke="#A3B92B"/>
<path d="M214.917 172.047C213.912 171.57 199.187 171.201 199.255 155.183C214.844 155.12 215.648 172.395 214.917 172.047Z" fill="#A3B92B"/>
<path d="M199.255 155.183C199.187 171.201 213.912 171.57 214.917 172.047C215.648 172.395 214.844 155.12 199.255 155.183ZM199.255 155.183C199.258 154.631 200.067 155.62 199.255 155.183Z" stroke="#A3B92B"/>
<path d="M138.652 252.44C138.481 251.207 144.252 235.179 124.228 230.321C117.553 247.151 138.776 253.338 138.652 252.44Z" fill="#A3B92B"/>
<path d="M124.228 230.321C144.252 235.179 138.481 251.207 138.652 252.44C138.776 253.338 117.553 247.151 124.228 230.321ZM124.228 230.321C123.537 230.153 124.43 231.332 124.228 230.321Z" stroke="#A3B92B"/>
<path d="M151.026 278.61C152.043 277.99 168.922 275.321 164.075 259.816C146.069 262.202 150.285 279.061 151.026 278.61Z" fill="#A3B92B"/>
<path d="M164.075 259.816C168.922 275.321 152.043 277.99 151.026 278.61C150.285 279.061 146.069 262.202 164.075 259.816ZM164.075 259.816C163.907 259.281 163.269 260.367 164.075 259.816Z" stroke="#A3B92B"/>
<path d="M196.338 278.118C196.77 276.642 210.744 259.203 192.195 249.135C176.876 267.311 196.024 279.194 196.338 278.118Z" fill="#A3B92B"/>
<path d="M192.195 249.135C210.744 259.203 196.77 276.642 196.338 278.118C196.024 279.194 176.876 267.311 192.195 249.135ZM192.195 249.135C191.555 248.788 191.905 250.36 192.195 249.135Z" stroke="#A3B92B"/>
<path d="M283.842 284.943C284.443 283.372 301.825 266.703 281.016 251.423C262.026 268.636 283.405 286.087 283.842 284.943Z" fill="#A3B92B"/>
<path d="M281.016 251.423C301.825 266.703 284.443 283.372 283.842 284.943C283.405 286.087 262.026 268.636 281.016 251.423ZM281.016 251.423C280.298 250.896 280.597 252.741 281.016 251.423Z" stroke="#A3B92B"/>
<path d="M251.951 311.615C252.448 310.325 266.713 296.448 249.773 284.347C234.192 298.694 251.589 312.555 251.951 311.615Z" fill="#A3B92B"/>
<path d="M249.773 284.347C266.713 296.448 252.448 310.325 251.951 311.615C251.589 312.555 234.192 298.694 249.773 284.347ZM249.773 284.347C249.188 283.929 249.425 285.428 249.773 284.347Z" stroke="#A3B92B"/>
<path d="M262.954 197.28C263.244 195.533 277.029 173.151 253.917 165.456C238.669 188.932 262.743 198.553 262.954 197.28Z" fill="#A3B92B"/>
<path d="M253.917 165.456C277.029 173.151 263.244 195.533 262.954 197.28C262.743 198.553 238.669 188.932 253.917 165.456ZM253.917 165.456C253.119 165.191 253.756 166.892 253.917 165.456Z" stroke="#A3B92B"/>
<path d="M229.616 244.924C228.885 243.346 228.305 218.767 203.796 222.395C203.716 248.518 230.149 246.073 229.616 244.924Z" fill="#A3B92B"/>
<path d="M203.796 222.395C228.305 218.767 228.885 243.346 229.616 244.924C230.149 246.073 203.716 248.518 203.796 222.395ZM203.796 222.395C202.95 222.521 204.465 223.658 203.796 222.395Z" stroke="#A3B92B"/>
<path d="M329.647 266.823C330.924 266.122 351.667 263.378 346.683 245.207C324.584 247.597 328.716 267.333 329.647 266.823Z" fill="#A3B92B"/>
<path d="M346.683 245.207C351.667 263.378 330.924 266.122 329.647 266.823C328.716 267.333 324.584 247.597 346.683 245.207ZM346.683 245.207C346.511 244.579 345.667 245.83 346.683 245.207Z" stroke="#A3B92B"/>
<path d="M307.217 273.149C308.237 274.545 312.927 297.986 337.702 290.657C333.439 265.634 306.474 272.133 307.217 273.149Z" fill="#A3B92B"/>
<path d="M337.702 290.657C312.927 297.986 308.237 274.545 307.217 273.149C306.474 272.133 333.439 265.634 337.702 290.657ZM337.702 290.657C338.557 290.404 336.799 289.553 337.702 290.657Z" stroke="#A3B92B"/>
<path d="M235.396 181.071C234.509 181.759 219.255 185.572 224.752 200.702C241.055 197.094 236.043 180.57 235.396 181.071Z" fill="#A3B92B"/>
<path d="M224.752 200.702C219.255 185.572 234.509 181.759 235.396 181.071C236.043 180.57 241.055 197.094 224.752 200.702ZM224.752 200.702C224.942 201.224 225.451 200.098 224.752 200.702Z" stroke="#A3B92B"/>
<path d="M287.067 181.154C287.947 182.411 292.062 203.455 313.277 197.027C309.522 174.568 286.426 180.238 287.067 181.154Z" fill="#A3B92B"/>
<path d="M313.277 197.027C292.062 203.455 287.947 182.411 287.067 181.154C286.426 180.238 309.522 174.568 313.277 197.027ZM313.277 197.027C314.009 196.805 312.498 196.032 313.277 197.027Z" stroke="#A3B92B"/>
<path d="M166.916 143.553C167.175 145.066 161.909 165.852 183.837 169.1C190.033 147.188 166.728 142.452 166.916 143.553Z" fill="#A3B92B"/>
<path d="M183.837 169.1C161.909 165.852 167.175 145.066 166.916 143.553C166.728 142.452 190.033 147.188 183.837 169.1ZM183.837 169.1C184.593 169.212 183.558 167.868 183.837 169.1Z" stroke="#A3B92B"/>
<path d="M315.743 243.345C314.449 242.274 292.291 233.881 300.124 216.266C323.802 224.651 316.685 244.125 315.743 243.345Z" fill="#A3B92B"/>
<path d="M300.124 216.266C292.291 233.881 314.449 242.274 315.743 243.345C316.685 244.125 323.802 224.651 300.124 216.266ZM300.124 216.266C300.394 215.658 301.144 217.187 300.124 216.266Z" stroke="#A3B92B"/>
<path d="M162 260.5C140.043 256.733 126.938 269.028 121.69 278.067" stroke="#A3B92B" stroke-width="5"/>
<path d="M121.536 277.94L122.772 278.953" stroke="#A3B92B" stroke-width="5"/>
<path d="M225.5 208.868C218.264 168.382 168.073 165.327 138.335 169.018" stroke="#A3B92B" stroke-width="5"/>
<path d="M138.566 168.598L136.716 171.956" stroke="#A3B92B" stroke-width="5"/>
<path d="M126.51 273.285C124.417 272.852 101.684 256.229 82.562 281.14C106.085 299.442 128.036 273.601 126.51 273.285Z" fill="#A3B92B"/>
<path d="M82.562 281.14C101.684 256.229 124.417 272.852 126.51 273.285C128.036 273.601 106.085 299.442 82.562 281.14ZM82.562 281.14C81.9022 281.999 84.3143 281.41 82.562 281.14Z" stroke="#A3B92B"/>
<path d="M127.376 271.01C127.818 272.585 141.749 291.577 123.66 301.362C108.401 281.533 127.055 269.863 127.376 271.01Z" fill="#A3B92B"/>
<path d="M123.66 301.362C141.749 291.577 127.818 272.585 127.376 271.01C127.055 269.863 108.401 281.533 123.66 301.362ZM123.66 301.362C123.036 301.699 123.361 300.059 123.66 301.362Z" stroke="#A3B92B"/>
<path d="M226.636 212.999C221.114 196.044 201.249 194.921 194.482 194.467" stroke="#A3B92B" stroke-width="5"/>
<path d="M201.075 195.414C200.094 194.41 193.429 178.58 174.818 181.352C181.346 198.188 201.789 196.145 201.075 195.414Z" fill="#A3B92B"/>
<path d="M174.818 181.352C193.429 178.58 200.094 194.41 201.075 195.414C201.789 196.145 181.346 198.188 174.818 181.352ZM174.818 181.352C174.176 181.447 175.67 182.154 174.818 181.352Z" stroke="#A3B92B"/>
<path d="M200.521 194.064C200.077 195.084 199.857 211.091 184.63 208.453C184.431 191.434 200.845 193.321 200.521 194.064Z" fill="#A3B92B"/>
<path d="M184.63 208.453C199.857 211.091 200.077 195.084 200.521 194.064C200.845 193.321 184.431 191.434 184.63 208.453ZM184.63 208.453C184.104 208.362 185.038 207.638 184.63 208.453Z" stroke="#A3B92B"/>
<path d="M165.896 169.663C165.291 171.234 164.058 196.401 145.629 191.114C146.412 164.322 166.336 168.518 165.896 169.663Z" fill="#A3B92B"/>
<path d="M145.629 191.114C164.058 196.401 165.291 171.234 165.896 169.663C166.336 168.518 146.412 164.322 145.629 191.114ZM145.629 191.114C144.993 190.932 146.176 189.862 145.629 191.114Z" stroke="#A3B92B"/>
<path d="M195.715 278.731C167.615 264.922 166.408 243.684 169.582 232.024" stroke="#A3B92B" stroke-width="5"/>
<path d="M169.284 232.011L171.664 232.115" stroke="#A3B92B" stroke-width="5"/>
<path d="M169.381 235.24C167.467 234.481 137.919 232.94 141.711 209.781C173.098 210.756 170.774 235.793 169.381 235.24Z" fill="#A3B92B"/>
<path d="M141.711 209.781C137.919 232.94 167.467 234.481 169.381 235.24C170.774 235.793 173.098 210.756 141.711 209.781ZM141.711 209.781C141.842 208.982 143.244 210.468 141.711 209.781Z" stroke="#A3B92B"/>
<path d="M167.936 236.729C169.512 235.915 195.499 231.202 188.364 213.78C160.651 218.276 166.789 237.322 167.936 236.729Z" fill="#A3B92B"/>
<path d="M188.364 213.78C195.499 231.202 169.512 235.915 167.936 236.729C166.789 237.322 160.651 218.276 188.364 213.78ZM188.364 213.78C188.118 213.179 187.114 214.493 188.364 213.78Z" stroke="#A3B92B"/>
<path d="M267.604 194.355C281.952 181.839 284.967 157.939 278.602 150.083" stroke="#A3B92B" stroke-width="5"/>
<path d="M278.877 149.976L276.67 150.84" stroke="#A3B92B" stroke-width="5"/>
<path d="M279.028 154.435C277.324 154.01 251.945 155.379 253.044 137.026C279.941 135.058 280.269 154.744 279.028 154.435Z" fill="#A3B92B"/>
<path d="M253.044 137.026C251.945 155.379 277.324 154.01 279.028 154.435C280.269 154.744 279.941 135.058 253.044 137.026ZM253.044 137.026C253.082 136.393 254.417 137.428 253.044 137.026Z" stroke="#A3B92B"/>
<path d="M280.792 151.709C282.173 150.899 305.737 144.55 297.614 131.227C272.44 137.571 279.785 152.299 280.792 151.709Z" fill="#A3B92B"/>
<path d="M297.614 131.227C305.737 144.55 282.173 150.899 280.792 151.709C279.785 152.299 272.44 137.571 297.614 131.227ZM297.614 131.227C297.334 130.767 296.524 131.924 297.614 131.227Z" stroke="#A3B92B"/>
<path d="M308.401 174.036C309.118 171.491 306.214 133.501 338.67 135.345C342.665 175.612 307.878 175.89 308.401 174.036Z" fill="#A3B92B"/>
<path d="M338.67 135.345C306.214 133.501 309.118 171.491 308.401 174.036C307.878 175.89 342.665 175.612 338.67 135.345ZM338.67 135.345C339.79 135.408 337.987 137.395 338.67 135.345Z" stroke="#A3B92B"/>
<path d="M310.334 175.296C311.649 176.391 319.806 196.611 346.624 186.427C338.748 164.733 309.376 174.498 310.334 175.296Z" fill="#A3B92B"/>
<path d="M346.624 186.427C319.806 196.611 311.649 176.391 310.334 175.296C309.376 174.498 338.748 164.733 346.624 186.427ZM346.624 186.427C347.55 186.075 345.477 185.575 346.624 186.427Z" stroke="#A3B92B"/>
<path d="M231.5 347C252.23 317.65 279.985 317.334 293.202 322.532" stroke="#A3B92B" stroke-width="5"/>
<path d="M293.265 322.202L292.764 324.839" stroke="#A3B92B" stroke-width="5"/>
<path d="M289.331 324.659C290.463 322.815 296.439 292.907 322.048 300.009C316.447 331.871 288.507 326.003 289.331 324.659Z" fill="#A3B92B"/>
<path d="M322.048 300.009C296.439 292.907 290.463 322.815 289.331 324.659C288.507 326.003 316.447 331.871 322.048 300.009ZM322.048 300.009C322.932 300.254 321.052 301.476 322.048 300.009Z" stroke="#A3B92B"/>
<path d="M287.093 323.063C287.808 324.925 289.441 354.305 310.813 349.102C309.69 317.852 286.573 321.707 287.093 323.063Z" fill="#A3B92B"/>
<path d="M310.813 349.102C289.441 354.305 287.808 324.925 287.093 323.063C286.573 321.707 309.69 317.852 310.813 349.102ZM310.813 349.102C311.551 348.922 310.168 347.614 310.813 349.102Z" stroke="#A3B92B"/>
<path d="M388.681 273.66C387.26 272.922 373.904 257.65 355.883 268.515C369.51 284.99 389.717 274.197 388.681 273.66Z" fill="#A3B92B"/>
<path d="M355.883 268.515C373.904 257.65 387.26 272.922 388.681 273.66C389.717 274.197 369.51 284.99 355.883 268.515ZM355.883 268.515C355.261 268.89 357.089 269.076 355.883 268.515Z" stroke="#A3B92B"/>
<path d="M204.705 133.757C206.555 132.96 234.479 132.679 232.401 105.099C202.783 104.616 203.357 134.338 204.705 133.757Z" fill="#A3B92B"/>
<path d="M232.401 105.099C234.479 132.679 206.555 132.96 204.705 133.757C203.357 134.338 202.783 104.616 232.401 105.099ZM232.401 105.099C232.329 104.148 230.913 105.832 232.401 105.099Z" stroke="#A3B92B"/>
<path d="M170.278 93.0231C172.596 94.3434 208.912 98.0699 203.063 135.826C164.453 132.951 168.59 92.0613 170.278 93.0231Z" fill="#A3B92B"/>
<path d="M203.063 135.826C208.912 98.0699 172.596 94.3434 170.278 93.0231C168.59 92.0613 164.453 132.951 203.063 135.826ZM203.063 135.826C202.861 137.129 201.209 134.639 203.063 135.826Z" stroke="#A3B92B"/>
<path d="M107.961 250.594C106.631 251.363 95.4923 267.932 75.3696 255.074C86.5909 237.17 108.929 250.033 107.961 250.594Z" fill="#A3B92B"/>
<path d="M75.3696 255.074C95.4923 267.932 106.631 251.363 107.961 250.594C108.929 250.033 86.5909 237.17 75.3696 255.074ZM75.3696 255.074C74.6752 254.63 76.5076 254.493 75.3696 255.074Z" stroke="#A3B92B"/>
<path d="M201.516 286.623C199.94 287.602 186.376 308.106 163.39 293.115C177.098 270.985 202.664 285.91 201.516 286.623Z" fill="#A3B92B"/>
<path d="M163.39 293.115C186.376 308.106 199.94 287.602 201.516 286.623C202.664 285.91 177.098 270.985 163.39 293.115ZM163.39 293.115C162.597 292.597 164.737 292.372 163.39 293.115Z" stroke="#A3B92B"/>
<path d="M106.97 252.585C106.989 250.733 115.547 224.458 95.5086 222.487C85.8822 250.245 106.956 253.933 106.97 252.585Z" fill="#A3B92B"/>
<path d="M95.5086 222.487C115.547 224.458 106.989 250.733 106.97 252.585C106.956 253.933 85.8822 250.245 95.5086 222.487ZM95.5086 222.487C94.8171 222.419 95.5567 223.989 95.5086 222.487Z" stroke="#A3B92B"/>
<path d="M226.5 297C225.5 271.5 239.832 243.498 227.068 212.126C214.305 180.754 218.359 156.483 217.099 153.715" stroke="#A3B92B" stroke-width="7"/>
<path d="M141.732 169.478C140.622 167.399 139.307 134.574 103.159 140.437C103.527 175.351 142.54 170.992 141.732 169.478Z" fill="#A3B92B"/>
<path d="M103.159 140.437C139.307 134.574 140.622 167.399 141.732 169.478C142.54 170.992 103.527 175.351 103.159 140.437ZM103.159 140.437C101.911 140.639 104.171 142.097 103.159 140.437Z" stroke="#A3B92B"/>
<path d="M141.717 170.115C140.375 171.224 133.666 189.569 102.39 184.416C108.606 164.85 142.694 169.307 141.717 170.115Z" fill="#A3B92B"/>
<path d="M102.39 184.416C133.666 189.569 140.375 171.224 141.717 170.115C142.694 169.307 108.606 164.85 102.39 184.416ZM102.39 184.416C101.311 184.238 103.573 183.537 102.39 184.416Z" stroke="#A3B92B"/>
<path d="M226.5 296.5L226.5 399.008" stroke="#A3B92B" stroke-width="7"/>
</svg>
